<?xml version="1.0" encoding="utf-8"?>
<!-- Generator: Adobe Illustrator 19.2.1, SVG Export Plug-In . SVG Version: 6.00 Build 0)  -->
<svg version="1.1" id="Layer_1" xmlns="http://www.w3.org/2000/svg" xmlns:xlink="http://www.w3.org/1999/xlink" x="0px" y="0px"
	 viewBox="0 0 93.8 100" style="enable-background:new 0 0 93.8 100;" xml:space="preserve">
<style type="text/css">
	.st0{fill:#51A5DB;}
	.st1{fill:#EF512C;}
	.st2{fill:#EAA621;}
	.st3{fill:#F5D20D;}
	.st4{fill:#FFFFFF;}
	.st5{fill:#83B761;}
	.st6{fill:#A7CA64;}
	.st7{fill:#2B2664;}
</style>
<polygon class="st0" points="48.1,54.3 48,54.3 40.1,58.3 42.5,63 "/>
<path class="st1" d="M67.8,49.1c1.6-1.9,3.1-3.9,4.3-6.1c-0.3-0.1-0.7-0.2-1-0.3l-6.2,3.2C65.5,47.2,66.6,48.3,67.8,49.1z"/>
<path class="st1" d="M64.5,46L44.6,56c5.9,1,10.6,1,16.8-2.2c2.3-1.1,4.4-2.6,6.1-4.3C66.2,48.6,65.2,47.4,64.5,46z"/>
<path class="st2" d="M74.9,83.5C82,78.2,85.6,71.2,83,67.8L57.6,86.9C60.1,90.4,67.9,88.8,74.9,83.5"/>
<path class="st3" d="M65.6,71.2c-7,5.3-10.7,12.3-8.1,15.8L83,67.8C80.4,64.4,72.7,65.9,65.6,71.2"/>
<path class="st4" d="M71.9,76.1c2.2,3,3.3,5.9,2.4,6.6s-3.4-1.2-5.7-4.1s-3.3-5.9-2.4-6.6S69.7,73.2,71.9,76.1"/>
<path class="st4" d="M77.2,72.2c1.7,2.2,2.5,4.5,1.8,5s-2.6-0.9-4.3-3.1s-2.5-4.5-1.8-5S75.5,69.9,77.2,72.2"/>
<path class="st4" d="M65.8,80.7c1.7,2.2,2.5,4.5,1.8,5s-2.6-0.9-4.3-3.1s-2.5-4.5-1.8-5S64.2,78.4,65.8,80.7"/>
<path class="st1" d="M38.7,85.7c0.3-4.3,4-7.6,8.3-7.3s7.6,4,7.3,8.3s-4,7.6-8.3,7.3c0,0,0,0,0,0C41.7,93.7,38.4,90,38.7,85.7
	C38.7,85.7,38.7,85.7,38.7,85.7"/>
<path class="st5" d="M47.5,76c0-0.1,0.1-0.5,0.1-0.6s0.1-0.3,0.1-0.5l0,0c0.1-0.2,0.2-0.4,0.3-0.6c0.1-0.3,0-0.6-0.3-0.8l0,0
	c-0.3-0.1-0.6,0-0.7,0.3c-0.2,0.5-0.4,1.1-0.5,1.6v0.1c0,0.1,0,0.2,0,0.3s0,0.1,0,0.2s0,0.1,0,0.2s0,0.2,0,0.3l0,0
	c0,0.3,0,0.5,0,0.8l0,0c0,0,0,0.1,0,0.1c0,0.3,0.3,0.5,0.6,0.5l0,0c0.3,0,0.6-0.3,0.5-0.6c0-0.2,0-0.4,0-0.6S47.5,76.2,47.5,76z"/>
<path class="st6" d="M54.2,76.9c1.5-1.3,2.1-3.3,1.8-5.2c-2.9-1-6,0.6-6.9,3.4c-0.3,0.9-0.4,1.9-0.2,2.8
	C50.7,78.6,52.8,78.2,54.2,76.9"/>
<polygon class="st1" points="37.8,53.8 40.1,58.3 48,54.3 "/>
<path class="st0" d="M64.5,46c-0.7-1.4-1-2.9-1-4.5c-2.5,0.4-4.9,1.2-7.1,2.3c-6.3,3.2-9,6.9-11.8,12.2L64.5,46L64.5,46L64.5,46z"/>
<path class="st0" d="M64,41.5c-0.1,1.5,0.2,3,0.9,4.3l0,0l6.2-3.2c0.1-0.3,0.2-0.7,0.3-1C69,41.4,66.5,41.3,64,41.5z M68.3,43.3
	c-0.3,0.1-0.6,0-0.7-0.2c-0.1-0.3,0-0.6,0.2-0.7c0.3-0.1,0.6,0,0.7,0.2c0,0,0,0,0,0C68.6,42.9,68.5,43.2,68.3,43.3
	C68.2,43.3,68.2,43.3,68.3,43.3L68.3,43.3z"/>
<path class="st0" d="M59.1,53.9c2.3-1.2,3.2-4,2.1-6.3L57,49.7L59.1,53.9z"/>
<path class="st5" d="M75.2,25.2c-0.4,0-0.7-0.3-0.7-0.7c0-0.2,0.1-0.5,0.3-0.6c1.5-1,3.2-1.5,5-1.6c0.4,0,0.7,0.3,0.7,0.7
	c0,0.4-0.3,0.7-0.6,0.7c0,0,0,0,0,0c-1.6,0-3.1,0.5-4.4,1.4C75.5,25.1,75.3,25.2,75.2,25.2z"/>
<path class="st6" d="M79.1,31.5c1.7,1.5,4.1,2,6.3,1.2c0.7-3.5-1.6-6.9-5.1-7.5c-1.1-0.2-2.2-0.1-3.3,0.2
	C76.6,27.6,77.4,30,79.1,31.5"/>
<path class="st7" d="M52.8,38.9c-0.3-1.3,0.5-2.7,1.8-3s2.7,0.5,3,1.8c0.3,1.3-0.5,2.7-1.8,3c0,0,0,0,0,0
	C54.5,41.1,53.2,40.2,52.8,38.9"/>
<path class="st7" d="M54.8,32c-0.3-1.3,0.5-2.7,1.8-3c1.3-0.3,2.7,0.5,3,1.8c0.3,1.3-0.5,2.7-1.8,3c0,0,0,0,0,0
	C56.5,34.1,55.2,33.3,54.8,32"/>
<path class="st7" d="M65.1,22.8c-0.3-1.3,0.5-2.7,1.8-3c1.3-0.3,2.7,0.5,3,1.8c0.3,1.3-0.5,2.7-1.8,3c0,0,0,0,0,0
	C66.8,24.9,65.4,24.1,65.1,22.8"/>
<path class="st7" d="M71.3,32.8c-0.3-1.3,0.5-2.7,1.8-3c1.3-0.3,2.7,0.5,3,1.8c0.3,1.3-0.5,2.7-1.8,3c0,0,0,0,0,0
	C72.9,34.9,71.6,34.1,71.3,32.8"/>
<path class="st7" d="M59.5,36.1c-0.3-1.3,0.5-2.7,1.8-3s2.7,0.5,3,1.8c0.3,1.3-0.5,2.7-1.8,3c0,0,0,0,0,0
	C61.2,38.2,59.8,37.4,59.5,36.1"/>
<path class="st7" d="M64.9,29.1c-0.4-1.6,0.5-3.2,2.1-3.7c1.6-0.4,3.2,0.5,3.7,2.1s-0.5,3.2-2.1,3.7c0,0,0,0-0.1,0
	C66.9,31.7,65.3,30.7,64.9,29.1"/>
<path class="st7" d="M58.4,24.8c-0.4-1.6,0.5-3.2,2.1-3.7c1.6-0.4,3.2,0.5,3.7,2.1c0.4,1.6-0.5,3.2-2.1,3.7c0,0-0.1,0-0.1,0
	C60.4,27.3,58.8,26.3,58.4,24.8"/>
<path class="st7" d="M66.1,16.5c-0.4-1.6,0.5-3.2,2.1-3.7c1.6-0.4,3.2,0.5,3.7,2.1s-0.5,3.2-2.1,3.7c0,0,0,0-0.1,0
	C68.1,19.1,66.5,18.1,66.1,16.5"/>
<path class="st7" d="M71.3,21.1c-0.3-1.2,0.4-2.5,1.7-2.8c1.2-0.3,2.5,0.4,2.8,1.7c0.3,1.2-0.4,2.5-1.7,2.8
	C72.9,23.1,71.6,22.4,71.3,21.1C71.3,21.1,71.3,21.1,71.3,21.1"/>
<path class="st7" d="M61.6,18.7c-0.2-0.9,0.4-1.9,1.3-2.1c0.9-0.2,1.9,0.4,2.1,1.3c0.2,0.9-0.4,1.8-1.3,2.1
	C62.8,20.2,61.8,19.7,61.6,18.7C61.6,18.7,61.6,18.7,61.6,18.7"/>
<path class="st7" d="M60.7,30.1c-0.2-0.9,0.3-1.9,1.3-2.1c0.9-0.2,1.9,0.3,2.1,1.3c0.2,0.9-0.3,1.9-1.3,2.1
	C61.8,31.6,60.9,31,60.7,30.1C60.7,30.1,60.7,30.1,60.7,30.1"/>
<path class="st7" d="M71.7,27.6c-0.2-0.9,0.3-1.9,1.3-2.1s1.9,0.3,2.1,1.3c0.2,0.9-0.3,1.9-1.3,2.1C72.9,29.1,72,28.5,71.7,27.6"/>
<path class="st0" d="M60.3,9.6l-9.2,22.8L45,29.9l0,0c3.8-9.4,9-17.1,13.8-21.4c0.4-0.3,1-0.3,1.3,0.1C60.4,8.9,60.5,9.3,60.3,9.6"
	/>
<path class="st7" d="M47.6,31l-3.2,7.9c-0.4,0.9,0.1,2,1,2.4c0,0,0,0,0,0c1,0.4,2.2-0.1,2.6-1.1l3.2-7.8L47.6,31z M47,39.7
	c-0.1,0.4-0.6,0.6-1,0.5s-0.6-0.6-0.5-1c0.1-0.4,0.6-0.6,1-0.5c0,0,0,0,0.1,0C47,38.9,47.2,39.3,47,39.7z"/>
<path class="st5" d="M70.4,58.7l-1.1-2.5l1.5-0.7c3.8-1.7,8.2-1,11.2,1.9l-1.9,2c-2.2-2-5.4-2.6-8.2-1.3L70.4,58.7z"/>
<path class="st6" d="M69.6,60.4l-2.1-4.8l4.4-2c2.3-1,3.8-3.3,3.7-5.8l5.2-0.1c0.1,4.6-2.6,8.9-6.8,10.8L69.6,60.4z"/>
<path class="st5" d="M89.9,53.8c-0.1-0.2-0.2-0.4-0.3-0.6c1-2.6-0.2-5.5-2.8-6.5c-0.3-0.1-0.7-0.2-1-0.3l-0.1-0.2
	c-0.2-2-2-3.4-4-3.2c-0.4,0-0.7,0.1-1.1,0.3l-0.3,0.2c-2.1-1.2-4.7-0.5-5.9,1.6c-1.2,2.1-0.5,4.7,1.6,5.9c0.4,0.2,0.8,0.4,1.2,0.5
	l0,0c0.5,1.1,1.4,2,2.5,2.5c0.1,0.3,0.2,0.7,0.3,1l0.1,0.1c-1.7,1.6-1.8,4.4-0.2,6.1c1.6,1.7,4.4,1.8,6.1,0.2
	c0.7-0.7,1.2-1.6,1.3-2.5c2-0.3,3.3-2.2,3-4.2C90.1,54.4,90,54.1,89.9,53.8z"/>
<path class="st5" d="M69.6,60.4c-0.2,0.1-0.9-0.9-1.5-2.2s-0.9-2.5-0.6-2.6s0.9,0.9,1.5,2.2S69.8,60.3,69.6,60.4"/>
<path class="st3" d="M31.1,88.6c-1.8,0-3.3-1.1-3.9-2.8l-5.4-15.4l1.2-0.7l11.2,11.8c1.6,1.7,1.5,4.3-0.1,5.9
	C33.2,88.2,32.1,88.6,31.1,88.6z M22.4,70.7l5.3,15c0.6,1.9,2.7,2.9,4.6,2.3s2.9-2.7,2.3-4.6c-0.2-0.5-0.5-1-0.9-1.4L22.8,70.4
	L22.4,70.7z"/>
<path class="st3" d="M32.4,89.3c-1,0-2-0.6-2.4-1.5l-8.3-17.3l1.2-0.7L34.6,85c0.9,1.2,0.7,2.9-0.5,3.8C33.6,89.1,33,89.3,32.4,89.3
	z M22.4,70.7l8.1,16.9c0.5,1.1,1.8,1.6,2.9,1.1c1.1-0.5,1.6-1.8,1.1-2.9c-0.1-0.2-0.2-0.3-0.3-0.4L22.8,70.4L22.4,70.7z"/>
<path class="st3" d="M31.4,90.6c-2.5,0-4.8-1.7-5.5-4.2l-4.5-16l1.5-0.9l12.2,11.2c2.3,2.1,2.5,5.7,0.3,8
	C34.4,89.9,32.9,90.5,31.4,90.6z M22.1,70.7l4.3,15.6c0.8,2.7,3.6,4.3,6.3,3.6c0.5-0.1,0.9-0.3,1.3-0.6c2.4-1.5,3.2-4.6,1.7-7
	c-0.2-0.4-0.6-0.8-0.9-1.1l-11.9-11L22.1,70.7z"/>
<path class="st3" d="M32.5,86.9c-0.1,0-0.2,0-0.2-0.1L19.9,66.6c-0.1-0.1,0-0.3,0.1-0.4c0.1-0.1,0.3,0,0.3,0.1l12.4,20.2
	c0.1,0.1,0,0.3-0.1,0.4C32.6,86.9,32.5,87,32.5,86.9z"/>
<path class="st7" d="M14.6,57.6L14.6,57.6c1.1-0.6,2.5-0.3,3.1,0.8l7,11.4l-3.9,2.4l-7-11.4C13.2,59.6,13.6,58.3,14.6,57.6"/>
<path class="st3" d="M20,27.6l13.4,7.1l-4-10.8c-1,0.4-2.2-0.1-2.6-1.1s0.1-2.2,1.1-2.6H28l-2.9-7.9l-2.5,2.4
	c0.9,0.4,1.2,1.5,0.8,2.4s-1.5,1.2-2.4,0.8c-0.4-0.2-0.7-0.5-0.8-0.9l-7.4,6.9l3.8,2c-0.1-1.3,0.9-2.3,2.1-2.4
	c1.3-0.1,2.3,0.9,2.4,2.1C21.1,26.4,20.7,27.1,20,27.6z M28,27.1c0.8-0.2,1.6,0.2,1.9,1c0.2,0.8-0.2,1.6-1,1.9
	c-0.8,0.2-1.6-0.2-1.9-1C26.7,28.2,27.2,27.4,28,27.1C28,27.1,28,27.1,28,27.1z"/>
<path class="st2" d="M29.4,23.9l3.9,10.8L33.2,18l-2.7-1.9c-0.3,0.7-1.2,1.1-2,0.7c-0.7-0.3-1.1-1.2-0.7-2c0.1-0.2,0.2-0.3,0.3-0.4
	l-3-2.1l2.9,7.8c1-0.4,2.2,0.2,2.6,1.2C31,22.4,30.4,23.5,29.4,23.9z"/>
<path class="st1" d="M37,35.7l0.7-17.5c0.1-1.9,1.7-3.3,3.5-3.3c0.2,0,0.4,0,0.6,0.1l0,0c1.8,0.4,3,2.2,2.6,4c0,0.2-0.1,0.4-0.2,0.6
	l-6.4,16.2c0,0.2-0.3,0.4-0.5,0.3C37.1,36.2,37,35.9,37,35.7L37,35.7"/>
<path class="st6" d="M44.9,10.5c0.3-1.4-0.1-2.9-1.1-4c-2.3,0.9-3.4,3.6-2.4,5.8c0.2,0.5,0.5,1,0.9,1.4C43.6,13.2,44.6,12,44.9,10.5
	"/>
<path class="st6" d="M47.4,15c1-0.7,1.6-1.8,1.6-3c-1.8-0.8-3.9,0.1-4.7,1.9c-0.2,0.4-0.3,0.9-0.3,1.3C45.2,15.7,46.4,15.6,47.4,15"
	/>
<path class="st6" d="M36.7,12.7c-0.6-1-0.8-2.2-0.3-3.3c2,0,3.6,1.7,3.5,3.7c0,0.5-0.1,0.9-0.3,1.3C38.5,14.3,37.4,13.7,36.7,12.7"
	/>
<path class="st6" d="M20.8,78.7c1,1.2,0.8,3-0.4,4c-1.4,0.7-3.1,0.1-3.8-1.2c-1-1.2-0.8-3,0.4-4C18.4,76.7,20.1,77.3,20.8,78.7"/>
<path class="st1" d="M17,79.2c-0.3-0.5-0.2-1.1,0.3-1.4s1.1-0.2,1.4,0.3c0.3,0.5,0.2,1.1-0.3,1.4c0,0,0,0,0,0
	C17.9,79.7,17.3,79.6,17,79.2"/>
<path class="st6" d="M27.1,65.3c1.3-0.2,2.2-1.4,2-2.7c-0.2-1.3-1.4-2.2-2.7-2c-0.3,0.1-0.6,0.2-0.9,0.4c-1.3,0.2-2.2,1.4-2,2.7
	s1.4,2.2,2.7,2C26.5,65.6,26.8,65.5,27.1,65.3"/>
<path class="st1" d="M24.5,62.8C24,63,23.7,63.5,23.9,64c0.2,0.5,0.7,0.7,1.2,0.5c0.5-0.2,0.7-0.7,0.5-1.2c0,0,0,0,0,0
	C25.4,62.9,24.9,62.7,24.5,62.8"/>
<path class="st6" d="M16.6,38.7c-1.1-0.5-1.9-1.5-2.1-2.7c1.7-1,4-0.5,5,1.3c0.2,0.4,0.4,0.8,0.5,1.3C19,39.2,17.8,39.2,16.6,38.7"
	/>
<path class="st6" d="M19.8,34.6c-1.2,0.2-2.4-0.1-3.3-1c0.8-1.9,3-2.7,4.8-1.9c0.4,0.2,0.8,0.4,1.1,0.7C22,33.5,21,34.3,19.8,34.6"
	/>
<path class="st6" d="M15.1,30.6c0.1,1.2-0.3,2.4-1.3,3.2c-1.8-1-2.4-3.2-1.5-5c0.2-0.4,0.5-0.7,0.8-1C14.2,28.3,15,29.4,15.1,30.6"
	/>
<path class="st6" d="M12.8,41.8c-0.8-0.9-1-2.2-0.7-3.3c2-0.2,3.8,1.3,3.9,3.4c0,0.4,0,0.9-0.1,1.3C14.7,43.3,13.5,42.8,12.8,41.8"
	/>
<path class="st6" d="M10.7,45.4c-0.4-0.9-0.4-1.9,0-2.7c1.6,0.2,2.8,1.6,2.6,3.2c0,0.4-0.2,0.7-0.3,1.1C12,46.9,11.1,46.3,10.7,45.4
	"/>
<path class="st6" d="M5.9,43.4c-1,0.1-1.9-0.3-2.5-1c0.8-1.4,2.6-1.9,4-1.2c0.3,0.2,0.6,0.4,0.8,0.7C7.7,42.8,6.9,43.3,5.9,43.4"/>
<path class="st6" d="M11,33c0.5,1.1,0.5,2.4-0.1,3.4c-2-0.3-3.4-2.2-3.1-4.2C7.9,31.8,8,31.4,8.2,31C9.4,31.2,10.5,31.9,11,33"/>
<path class="st6" d="M7.7,36.5c1,0.7,1.5,1.9,1.5,3.1c-1.9,0.7-4-0.4-4.7-2.3c-0.1-0.4-0.2-0.9-0.2-1.3C5.4,35.5,6.7,35.7,7.7,36.5"
	/>
<path class="st6" d="M10.2,52.9c-0.2,0-0.4-0.1-0.4-0.3c-2.8-7.9-0.5-16,5.4-18.8c0.2-0.1,0.5,0,0.6,0.2s0,0.5-0.2,0.6l0,0
	c-5.5,2.6-7.6,10.2-5,17.6c0.1,0.2,0,0.5-0.3,0.6L10.2,52.9z"/>
<path class="st7" d="M66.2,34.6c-0.2-1,0.4-2.1,1.4-2.3c1-0.2,2.1,0.4,2.3,1.4c0.2,1-0.4,2-1.4,2.3C67.5,36.3,66.5,35.6,66.2,34.6"
	/>
<path class="st7" d="M61.9,13.3c-0.3-1,0.4-2.1,1.4-2.3c1-0.3,2.1,0.4,2.3,1.4s-0.4,2.1-1.4,2.3c0,0,0,0,0,0
	C63.2,15,62.1,14.3,61.9,13.3"/>
<path class="st2" d="M6.1,57.4c-0.3,0.7-1.1,1.1-1.9,0.8c-0.1,0-0.2-0.1-0.2-0.1c-0.7-0.3-1.1-1.2-0.7-1.9c0-0.1,0.1-0.2,0.1-0.2
	c0.7-0.9,1.7-1.6,2.8-1.9C6.5,55.2,6.5,56.4,6.1,57.4"/>
<path class="st2" d="M15.3,51.6c-0.2,0.6-1,1-1.6,0.7c-0.1,0-0.2-0.1-0.2-0.1c-0.6-0.3-0.9-1-0.6-1.7c0-0.1,0.1-0.2,0.1-0.2
	c0.6-0.8,1.4-1.4,2.4-1.7C15.7,49.6,15.7,50.6,15.3,51.6"/>
<path class="st3" d="M8.2,55.6c-0.1-0.8,0.4-1.5,1.2-1.6c0.1,0,0.2,0,0.3,0c0.8-0.1,1.5,0.5,1.6,1.3c0,0.1,0,0.2,0,0.3
	c-0.2,1.1-0.7,2.2-1.5,3C8.9,57.8,8.4,56.7,8.2,55.6"/>
<path class="st2" d="M3.3,50.5c-0.5-0.6-0.5-1.4,0.1-1.9c0.1-0.1,0.1-0.1,0.2-0.2c0.6-0.5,1.4-0.4,1.9,0.2c0.1,0.1,0.1,0.2,0.1,0.2
	c0.5,1,0.6,2.1,0.4,3.1C5,51.8,4.1,51.3,3.3,50.5"/>
<path class="st1" d="M74.5,39.5c-0.4,0-0.7-0.3-0.7-0.7c0-0.3,0.2-0.6,0.6-0.7l6.2-1c0.4-0.1,0.7,0.2,0.8,0.6
	c0.1,0.4-0.2,0.7-0.5,0.8l-6.2,1L74.5,39.5L74.5,39.5z"/>
<path class="st1" d="M82.4,41.7L82.4,41.7c1.7,0.2,3.4-0.1,4.9-0.8c0.9-0.4,1.3-1.4,1.2-2.3l-0.3-2.1c-0.1-0.3-0.3-0.5-0.6-0.5
	c0,0,0,0,0,0l-6.8,1.2c-0.3,0.1-0.5,0.3-0.5,0.6l0.3,2.1C80.7,40.8,81.4,41.6,82.4,41.7"/>
<path class="st3" d="M82,37.9c-1.2,0-1.7-0.2-1.7-0.4s1.2-1,3.6-1.4c0.7-0.1,1.5-0.2,2.2-0.2c1.2,0,1.7,0.2,1.7,0.4
	c-0.2,0.4-0.5,0.6-0.9,0.7c-0.9,0.4-1.8,0.6-2.7,0.8C83.5,37.9,82.7,37.9,82,37.9"/>
<path class="st1" d="M86.2,35.8v0.4c0.5,0,1,0,1.4,0.2c-1,0.7-2.2,1.1-3.4,1.2c-0.7,0.1-1.4,0.2-2.2,0.2c-0.5,0-1,0-1.4-0.2
	c1-0.7,2.2-1.1,3.4-1.2c0.7-0.1,1.4-0.2,2.2-0.2L86.2,35.8 M86.2,35.8c-0.8,0-1.5,0.1-2.2,0.2c-2.2,0.4-3.9,1.1-3.8,1.7
	c0.1,0.3,0.8,0.5,1.9,0.5c0.8,0,1.5-0.1,2.2-0.2c2.2-0.4,3.9-1.1,3.8-1.7C88,35.9,87.2,35.8,86.2,35.8"/>
<path class="st3" d="M8.7,65.9l5.4,1.1l-3-4.6C9.9,63.2,9.1,64.5,8.7,65.9z"/>
<path class="st3" d="M13.9,67.8l-5.4-1.2c-0.2,1.4,0,2.9,0.7,4.1L13.9,67.8z"/>
<path class="st3" d="M13.1,73.8l1.2-5.3l-4.6,3C10.5,72.6,11.8,73.4,13.1,73.8z"/>
<path class="st3" d="M14.9,74L14.9,74c1.1,0,2.2-0.3,3.1-0.8l-3-4.6L13.9,74C14.2,74,14.6,74,14.9,74z"/>
<path class="st2" d="M14.9,75.7c-0.6,0-1.2-0.1-1.8-0.2C8.8,74.6,6,70.2,7,65.9c0.5-2.1,1.7-3.9,3.5-5.1l0.5,0.7
	c-3.4,2.2-4.3,6.6-2.2,10s6.6,4.3,10,2.2l0.5,0.7C18,75.2,16.5,75.7,14.9,75.7z"/>
<path class="st1" d="M37.2,73.3c0,1.2-1,2.2-2.1,2.2s-2.2-1-2.2-2.1c0-1.2,0.9-2.1,2.1-2.2C36.2,71.2,37.2,72.1,37.2,73.3L37.2,73.3
	"/>
<path class="st5" d="M34.8,72.8c-0.2,0-0.4-0.2-0.5-0.4c-0.3-3.1,0.7-6.3,2.9-8.6c0.2-0.2,0.5-0.2,0.7,0c0.2,0.2,0.2,0.5,0,0.7
	c-1.9,2.1-2.9,4.9-2.6,7.8C35.3,72.5,35.1,72.8,34.8,72.8L34.8,72.8L34.8,72.8z"/>
<path class="st5" d="M45.8,44.2c-1.1-0.1-2.1,0.3-2.8,1.1c-0.4-0.2-0.7-0.5-0.9-0.9c-0.4-0.7-0.4-1.6,0-2.4c0.1-0.2,0-0.5-0.3-0.6
	c-0.2-0.1-0.5,0-0.6,0.3l0,0c-0.5,1-0.5,2.3,0.1,3.3l0,0c-1.6,1.2-1.8,3.5-0.6,5.1c0.2,0.2,0.4,0.4,0.6,0.6c1.5-0.9,2.2-2.7,1.6-4.3
	c0.3,0.1,0.6,0.2,0.9,0.3c1.6,1.2,3.7,0.9,5-0.6C48,44.9,46.9,44.3,45.8,44.2z"/>
<path class="st5" d="M39.7,70.6L39.7,70.6c-1.5,0-2.8-0.7-3.7-1.9c-0.6-1-0.6-2.3-0.1-3.3c0.1-0.2,0.4-0.4,0.6-0.3
	c0.2,0.1,0.4,0.4,0.3,0.6l0,0c-0.4,0.8-0.4,1.7,0,2.4c0.7,0.9,1.8,1.4,2.9,1.4c0.3,0,0.4,0.3,0.4,0.5C40.1,70.4,39.9,70.6,39.7,70.6
	z"/>
<path class="st1" d="M42.3,70.5c0,1.2-1,2.1-2.1,2.1s-2.1-1-2.1-2.1c0-1.2,1-2.1,2.1-2.1l0,0C41.4,68.4,42.3,69.3,42.3,70.5"/>
<rect x="18.4" y="40.2" transform="matrix(0.2733 -0.9619 0.9619 0.2733 -24.7769 63.2814)" class="st1" width="22.1" height="15.6"/>
<polygon class="st7" points="19,56.5 17.1,56 23.2,34.7 25,35.3 "/>
<path class="st2" d="M47.3,79.8c0.8,1.2,1.5,2.6,1.9,4l3.8,1.4C52.6,82.2,50.2,80,47.3,79.8"/>
<rect x="62.6" y="63.3" transform="matrix(0.998 -6.313889e-02 6.313889e-02 0.998 -3.9288 4.1719)" class="st3" width="2.9" height="1.8"/>
<path class="st6" d="M43.5,65.5c0,0,0.8,2,5.6,3.2s13.9,0.4,13.9,0.4l-0.3-4.7L43.5,65.5z"/>
<path class="st3" d="M43.5,65.5c0,0,0.6-2.1,5.2-3.8s13.8-2.1,13.8-2.1l0.3,4.7L43.5,65.5z"/>
<path class="st7" d="M75.4,63.6L75.4,63.6c0.1,0.9-0.6,1.6-1.5,1.7c0,0,0,0,0,0l-8.4,0.4l-0.2-3.2l8.4-0.4
	C74.6,62,75.3,62.7,75.4,63.6C75.4,63.6,75.4,63.6,75.4,63.6"/>
<path class="st4" d="M33.7,49.1l-9.1-2.5l1.9-6.8l9.1,2.5L33.7,49.1z M26.3,45.7l6.4,1.8l1.2-4.2l-6.5-1.8L26.3,45.7z"/>
<path class="st6" d="M42.5,48.6c1,1.1,2.4,1.7,3.9,1.5c0.6-2.4-0.8-4.8-3.2-5.5c-0.5-0.1-1.1-0.2-1.6-0.1
	C41.2,46,41.6,47.5,42.5,48.6"/>
</svg>
