<svg fill="#000000" xmlns="http://www.w3.org/2000/svg"  viewBox="0 0 50 50" width="24px" height="24px"><path fill="none" stroke="#000000" stroke-miterlimit="10" stroke-width="2" d="M36,45H14c-4.971,0-9-4.029-9-9V14 c0-4.971,4.029-9,9-9h22c4.971,0,9,4.029,9,9v22C45,40.971,40.971,45,36,45z"/><path fill="none" stroke="#000000" stroke-miterlimit="10" stroke-width="2" d="M37,34H13c-1.105,0-2-0.895-2-2V18 c0-1.105,0.895-2,2-2h24c1.105,0,2,0.895,2,2v14C39,33.105,38.105,34,37,34z"/><path fill="none" stroke="#000000" stroke-miterlimit="10" stroke-width="2" d="M38,17l-9.616,9.601 c-1.875,1.872-4.912,1.871-6.786-0.003L12,17"/><line x1="20" x2="12" y1="25" y2="33" fill="none" stroke="#000000" stroke-miterlimit="10" stroke-width="2"/><line x1="38" x2="29.988" y1="33" y2="25" fill="none" stroke="#000000" stroke-miterlimit="10" stroke-width="2"/></svg>