<svg fill="#000000" xmlns="http://www.w3.org/2000/svg"  viewBox="0 0 50 50" width="24px" height="24px"><path fill="none" stroke="#000000" stroke-miterlimit="10" stroke-width="2" d="M36,44.99H14c-4.971,0-9-4.029-9-9v-22 c0-4.971,4.029-9,9-9h22c4.971,0,9,4.029,9,9v22C45,40.961,40.971,44.99,36,44.99z"/><path fill="none" stroke="#000000" stroke-miterlimit="10" stroke-width="2" d="M34.556,37.001c0.803,0,3.564-1.443,3.41-5.007 c-0.027-0.628-0.38-1.204-0.923-1.552c-0.618-0.396-1.577-1.011-2.828-1.811c-1.141-0.729-2.615-0.781-3.805-0.129l-1.083,0.464 c-0.564,0.396-1.287,0.475-1.923,0.209c-0.99-0.414-2.511-1.216-3.937-2.642c-1.426-1.426-2.228-2.947-2.642-3.937 c-0.266-0.636-0.187-1.359,0.209-1.923l0.464-1.083c0.652-1.19,0.601-2.664-0.129-3.805c-0.8-1.251-1.415-2.21-1.811-2.828 c-0.348-0.543-0.924-0.896-1.552-0.923c-3.564-0.154-5.007,2.607-5.007,3.41c0,0.556-0.761,7.239,6.778,14.778 S34,37.001,34.556,37.001z"/></svg>